# MagicaVoxel @ Ephtracy

# group
g telport 4

# material
mtllib telport 4.mtl
usemtl palette

# normals
vn -1 0 0
vn 1 0 0
vn 0 0 1
vn 0 0 -1
vn 0 -1 0
vn 0 1 0

# texcoords
vt 0.119141 0.5
vt 0.146484 0.5
vt 0.330078 0.5
vt 0.560547 0.5
vt 0.677734 0.5
vt 0.748047 0.5
vt 0.927734 0.5
vt 0.958984 0.5
vt 0.990234 0.5

# verts
v -9 21 14
v -9 21 12
v -9 31 14
v -9 31 12
v -8 18 17
v -8 18 10
v -8 19 17
v -8 19 10
v -8 22 15
v -8 22 14
v -8 30 15
v -8 30 14
v -6 19 14
v -6 19 13
v -6 20 14
v -6 20 13
v -5 20 14
v -5 20 13
v -5 21 14
v -5 21 13
v 4 22 13
v 4 22 12
v 4 23 13
v 4 30 13
v 4 30 12
v -8 22 13
v -8 22 12
v -8 23 13
v -8 30 13
v -8 30 12
v 1 20 14
v 1 20 13
v 1 21 14
v 1 21 13
v 2 19 14
v 2 19 13
v 2 20 14
v 2 20 13
v 4 18 17
v 4 18 10
v 4 19 17
v 4 19 10
v 4 22 15
v 4 22 14
v 4 30 15
v 4 30 14
v 5 21 14
v 5 21 12
v 5 31 14
v 5 31 12
v -8 18 17
v -8 19 17
v 4 18 17
v 4 19 17
v -8 22 15
v -8 30 15
v 4 22 15
v 4 30 15
v -9 21 14
v -9 31 14
v -8 22 14
v -8 30 14
v -6 19 14
v -6 20 14
v -5 20 14
v -5 21 14
v 1 20 14
v 1 21 14
v 2 19 14
v 2 20 14
v 4 22 14
v 4 30 14
v 5 21 14
v 5 31 14
v -8 22 13
v -8 23 13
v -8 30 13
v -6 19 13
v -6 20 13
v -5 20 13
v -5 21 13
v -4 24 13
v -4 29 13
v -3 24 13
v -3 26 13
v -3 27 13
v -3 29 13
v -2 27 13
v -2 29 13
v -1 26 13
v -1 29 13
v 0 28 13
v 0 29 13
v 1 20 13
v 1 21 13
v 1 28 13
v 1 29 13
v 2 19 13
v 2 20 13
v 2 24 13
v 2 25 13
v 2 26 13
v 2 27 13
v 2 28 13
v 2 29 13
v 3 22 13
v 3 23 13
v 3 24 13
v 3 25 13
v 3 26 13
v 3 27 13
v 3 28 13
v 3 29 13
v 4 22 13
v 4 23 13
v 4 30 13
v -9 21 12
v -9 31 12
v -8 22 12
v -8 30 12
v 4 22 12
v 4 30 12
v 5 21 12
v 5 31 12
v -8 18 10
v -8 19 10
v 4 18 10
v 4 19 10
v -8 18 17
v 4 18 17
v -8 18 10
v 4 18 10
v -9 21 14
v -5 21 14
v 1 21 14
v 5 21 14
v -5 21 13
v 1 21 13
v -9 21 12
v 5 21 12
v -8 22 15
v 4 22 15
v -8 22 14
v 4 22 14
v -8 30 13
v 4 30 13
v -8 30 12
v 4 30 12
v -8 19 17
v 4 19 17
v -6 19 14
v 2 19 14
v -6 19 13
v 2 19 13
v -8 19 10
v 4 19 10
v -6 20 14
v -5 20 14
v 1 20 14
v 2 20 14
v -6 20 13
v -5 20 13
v 1 20 13
v 2 20 13
v -8 22 13
v 3 22 13
v 4 22 13
v -8 22 12
v 4 22 12
v -8 30 15
v 4 30 15
v -8 30 14
v 4 30 14
v -9 31 14
v 5 31 14
v -9 31 12
v 5 31 12

# faces
f 3/9/1 2/9/1 1/9/1
f 4/9/1 2/9/1 3/9/1
f 7/9/1 6/9/1 5/9/1
f 8/9/1 6/9/1 7/9/1
f 11/9/1 10/9/1 9/9/1
f 12/9/1 10/9/1 11/9/1
f 15/9/1 14/9/1 13/9/1
f 16/9/1 14/9/1 15/9/1
f 19/9/1 18/9/1 17/9/1
f 20/9/1 18/9/1 19/9/1
f 23/9/1 22/9/1 21/9/1
f 24/9/1 22/9/1 23/9/1
f 25/9/1 22/9/1 24/9/1
f 26/9/2 27/9/2 28/9/2
f 28/9/2 27/9/2 29/9/2
f 29/9/2 27/9/2 30/9/2
f 31/9/2 32/9/2 33/9/2
f 33/9/2 32/9/2 34/9/2
f 35/9/2 36/9/2 37/9/2
f 37/9/2 36/9/2 38/9/2
f 39/9/2 40/9/2 41/9/2
f 41/9/2 40/9/2 42/9/2
f 43/9/2 44/9/2 45/9/2
f 45/9/2 44/9/2 46/9/2
f 47/9/2 48/9/2 49/9/2
f 49/9/2 48/9/2 50/9/2
f 53/9/3 52/9/3 51/9/3
f 54/9/3 52/9/3 53/9/3
f 57/9/3 56/9/3 55/9/3
f 58/9/3 56/9/3 57/9/3
f 61/9/3 60/9/3 59/9/3
f 62/9/3 60/9/3 61/9/3
f 65/9/3 64/9/3 63/9/3
f 66/9/3 61/9/3 59/9/3
f 67/9/3 65/9/3 63/9/3
f 67/9/3 66/9/3 65/9/3
f 68/9/3 61/9/3 66/9/3
f 68/9/3 66/9/3 67/9/3
f 69/9/3 67/9/3 63/9/3
f 70/9/3 67/9/3 69/9/3
f 71/9/3 61/9/3 68/9/3
f 72/9/3 60/9/3 62/9/3
f 73/9/3 71/9/3 68/9/3
f 73/9/3 72/9/3 71/9/3
f 74/9/3 60/9/3 72/9/3
f 74/9/3 72/9/3 73/9/3
f 78/9/4 79/9/4 80/9/4
f 76/6/4 77/6/4 82/6/4
f 82/6/4 77/6/4 83/6/4
f 76/6/4 82/6/4 84/6/4
f 82/8/4 83/8/4 84/8/4
f 84/8/4 83/8/4 85/8/4
f 85/8/4 83/8/4 86/8/4
f 83/6/4 77/6/4 87/6/4
f 86/8/4 83/8/4 87/8/4
f 85/8/4 86/8/4 88/8/4
f 86/6/4 87/6/4 88/6/4
f 87/6/4 77/6/4 89/6/4
f 88/6/4 87/6/4 89/6/4
f 85/8/4 88/8/4 90/8/4
f 84/6/4 85/6/4 90/6/4
f 88/8/4 89/8/4 90/8/4
f 89/6/4 77/6/4 91/6/4
f 90/8/4 89/8/4 91/8/4
f 90/6/4 91/6/4 92/6/4
f 91/6/4 77/6/4 93/6/4
f 92/6/4 91/6/4 93/6/4
f 80/9/4 81/9/4 94/9/4
f 78/9/4 80/9/4 94/9/4
f 94/9/4 81/9/4 95/9/4
f 92/5/4 93/5/4 96/5/4
f 90/6/4 92/6/4 96/6/4
f 93/6/4 77/6/4 97/6/4
f 96/5/4 93/5/4 97/5/4
f 78/9/4 94/9/4 98/9/4
f 98/9/4 94/9/4 99/9/4
f 90/6/4 96/6/4 100/6/4
f 84/6/4 90/6/4 100/6/4
f 76/6/4 84/6/4 100/6/4
f 96/6/4 97/6/4 100/6/4
f 100/6/4 97/6/4 101/6/4
f 101/6/4 97/6/4 102/6/4
f 102/6/4 97/6/4 103/6/4
f 103/6/4 97/6/4 104/6/4
f 97/6/4 77/6/4 105/6/4
f 104/6/4 97/6/4 105/6/4
f 75/7/4 76/7/4 106/7/4
f 76/6/4 100/6/4 107/6/4
f 106/7/4 76/7/4 107/7/4
f 100/1/4 101/1/4 108/1/4
f 107/6/4 100/6/4 108/6/4
f 101/6/4 102/6/4 109/6/4
f 108/1/4 101/1/4 109/1/4
f 102/2/4 103/2/4 110/2/4
f 109/6/4 102/6/4 110/6/4
f 103/6/4 104/6/4 111/6/4
f 110/2/4 103/2/4 111/2/4
f 104/3/4 105/3/4 112/3/4
f 111/6/4 104/6/4 112/6/4
f 105/6/4 77/6/4 113/6/4
f 112/3/4 105/3/4 113/3/4
f 106/4/4 107/4/4 114/4/4
f 111/6/4 112/6/4 115/6/4
f 114/4/4 107/4/4 115/4/4
f 110/6/4 111/6/4 115/6/4
f 112/6/4 113/6/4 115/6/4
f 108/6/4 109/6/4 115/6/4
f 107/6/4 108/6/4 115/6/4
f 109/6/4 110/6/4 115/6/4
f 113/6/4 77/6/4 116/6/4
f 115/6/4 113/6/4 116/6/4
f 117/9/4 118/9/4 119/9/4
f 119/9/4 118/9/4 120/9/4
f 117/9/4 119/9/4 121/9/4
f 120/9/4 118/9/4 122/9/4
f 117/9/4 121/9/4 123/9/4
f 121/9/4 122/9/4 123/9/4
f 122/9/4 118/9/4 124/9/4
f 123/9/4 122/9/4 124/9/4
f 125/9/4 126/9/4 127/9/4
f 127/9/4 126/9/4 128/9/4
f 131/9/5 130/9/5 129/9/5
f 132/9/5 130/9/5 131/9/5
f 137/9/5 134/9/5 133/9/5
f 138/9/5 136/9/5 135/9/5
f 139/9/5 137/9/5 133/9/5
f 139/9/5 138/9/5 137/9/5
f 140/9/5 136/9/5 138/9/5
f 140/9/5 138/9/5 139/9/5
f 143/9/5 142/9/5 141/9/5
f 144/9/5 142/9/5 143/9/5
f 147/9/5 146/9/5 145/9/5
f 148/9/5 146/9/5 147/9/5
f 149/9/6 150/9/6 151/9/6
f 151/9/6 150/9/6 152/9/6
f 149/9/6 151/9/6 153/9/6
f 152/9/6 150/9/6 154/9/6
f 149/9/6 153/9/6 155/9/6
f 153/9/6 154/9/6 155/9/6
f 154/9/6 150/9/6 156/9/6
f 155/9/6 154/9/6 156/9/6
f 157/9/6 158/9/6 161/9/6
f 161/9/6 158/9/6 162/9/6
f 159/9/6 160/9/6 163/9/6
f 163/9/6 160/9/6 164/9/6
f 165/9/6 166/9/6 168/9/6
f 166/9/6 167/9/6 168/9/6
f 168/9/6 167/9/6 169/9/6
f 170/9/6 171/9/6 172/9/6
f 172/9/6 171/9/6 173/9/6
f 174/9/6 175/9/6 176/9/6
f 176/9/6 175/9/6 177/9/6
